# xmcd
#
# Track frame offsets:
# 150
# 18414
# 43056
# 58516
# 73653
# 98090
# 127634
# 139371
# 157456
# 180220
# 203690
# 228264
#
# Disc length: 3373 seconds
#
#
# Revision: 0
# Processed by: cddbd v1.4PL0 Copyright (c) Steve Scherf et al.
# Submitted via: FreeRIP 2.11 
#
DISCID=9e0d2b0c
DTITLE=Roach Thompson - Roach Thompson
DYEAR=1998
DGENRE=Blues
TTITLE0=Baby Don't Love Me No More
TTITLE1=Cat Woman
TTITLE2=Hurricane Took My Home
TTITLE3=Shit House Rep
TTITLE4=When I Found You
TTITLE5=Witch Bitch
TTITLE6=Mama Talk to Your Daughter
TTITLE7=Tried to Win Your Love
TTITLE8=Forever Man
TTITLE9=Classy Chassie
TTITLE10=I Can't Help Myself
TTITLE11=Kill That Roach
EXTD=
EXTT0=
EXTT1=
EXTT2=
EXTT3=
EXTT4=
EXTT5=
EXTT6=
EXTT7=
EXTT8=
EXTT9=
EXTT10=
EXTT11=
PLAYORDER=
